<svg width="14.000000" height="14.000000" viewBox="0 0 14 14" fill="none" xmlns="http://www.w3.org/2000/svg" xmlns:xlink="http://www.w3.org/1999/xlink">
	<desc>
			Created with Pixso.
	</desc>
	<defs>
		<clipPath id="clip278_1080">
			<rect id="Закрыть" width="14.000000" height="14.000000" fill="white" fill-opacity="0"/>
		</clipPath>
	</defs>
	<g clip-path="url(#clip278_1080)">
		<path id="path" d="M7 12.83C10.22 12.83 12.83 10.22 12.83 7C12.83 3.77 10.22 1.16 7 1.16C3.77 1.16 1.16 3.77 1.16 7C1.16 10.22 3.77 12.83 7 12.83Z" fill="#BA75FE" fill-opacity="1.000000" fill-rule="nonzero"/>
		<path id="path" d="M12.83 7C12.83 3.77 10.22 1.16 7 1.16C3.77 1.16 1.16 3.77 1.16 7C1.16 10.22 3.77 12.83 7 12.83C10.22 12.83 12.83 10.22 12.83 7Z" stroke="#BA75FE" stroke-opacity="1.000000" stroke-width="1.500000" stroke-linejoin="round"/>
		<path id="path" d="M5.88 9.15L5.88 9.18C5.58 9.47 5.11 9.47 4.81 9.18C4.52 8.88 4.52 8.41 4.81 8.11L4.84 8.11L5.88 9.15ZM8.11 4.84L8.11 4.81C8.41 4.52 8.88 4.52 9.18 4.81C9.47 5.11 9.47 5.58 9.18 5.88L9.15 5.88L8.11 4.84Z" fill="#000000" fill-opacity="0" fill-rule="nonzero"/>
		<path id="path" d="M5.35 8.64L8.64 5.35" stroke="#FFFFFF" stroke-opacity="1.000000" stroke-width="1.500000" stroke-linejoin="round" stroke-linecap="round"/>
		<path id="path" d="M4.84 5.88L4.82 5.88C4.52 5.58 4.52 5.11 4.82 4.81C5.11 4.52 5.58 4.52 5.88 4.81L5.88 4.84L4.84 5.88ZM9.15 8.11L9.18 8.11C9.47 8.41 9.47 8.88 9.18 9.18C8.88 9.47 8.41 9.47 8.12 9.18L8.12 9.15L9.15 8.11Z" fill="#000000" fill-opacity="0" fill-rule="nonzero"/>
		<path id="path" d="M5.35 5.35L8.65 8.64" stroke="#FFFFFF" stroke-opacity="1.000000" stroke-width="1.500000" stroke-linejoin="round" stroke-linecap="round"/>
	</g>
</svg>
